<svg width="66" height="86" viewBox="0 0 66 86" fill="none" xmlns="http://www.w3.org/2000/svg">
    <path
        d="M29.2313 0.743757C29.154 0.757821 29.0767 0.778913 29.0063 0.800007C28.1696 0.989852 27.579 1.7422 27.6001 2.60001V3.27501L24.8438 4.62501C24.3306 4.35079 23.7399 4.3086 23.2126 4.56876L16.0126 8.16876C15.436 8.45704 15.0353 9.04063 15.0001 9.68751C14.9931 9.77891 15.0071 9.87735 15.0001 9.96876C13.7134 11.0516 12.729 12.4789 11.7938 14.0188C10.6337 15.9242 9.55088 17.9984 8.2501 19.8125C6.66104 22.0274 4.80479 24.7203 3.35635 26.9563C2.63213 28.0742 2.02744 29.0586 1.55635 29.8813C1.32432 30.2891 1.09229 30.6688 0.937598 31.0063C0.782911 31.3438 0.600098 31.4633 0.600098 32.3C0.600098 32.9117 0.726661 33.0734 0.825098 33.3125C0.923536 33.5516 1.029 33.7836 1.1626 34.0438C1.42275 34.5641 1.76729 35.1969 2.1751 35.9C2.99775 37.2992 4.0876 39.0008 5.15635 40.6813C7.11104 43.7469 8.71416 46.2078 9.0376 46.7C8.86885 47.3398 8.43994 48.6688 8.30635 51.1438C8.14463 54.1531 8.46104 57.943 10.8376 60.9875C10.9009 61.0859 10.9782 61.1844 11.0626 61.2688C10.0993 67.3578 9.6001 74.1641 9.6001 81.8C9.6001 82.6297 10.1485 83.3399 10.9501 83.5438C11.2524 83.6211 18.579 85.4 33.0001 85.4C47.4353 85.4 54.7478 83.6211 55.0501 83.5438C55.8517 83.3399 56.4001 82.6297 56.4001 81.8C56.4001 74.0797 55.936 67.2664 54.9939 61.2125C55.0571 61.1422 55.1134 61.0648 55.1626 60.9875C57.5392 57.943 57.8556 54.1531 57.6939 51.1438C57.5603 48.6688 57.1314 47.3398 56.9626 46.7C57.286 46.2078 58.8892 43.7469 60.8438 40.6813C61.9126 39.0008 63.0024 37.2992 63.8251 35.9C64.2329 35.1969 64.5774 34.5641 64.8376 34.0438C64.9712 33.7836 65.0767 33.5516 65.1751 33.3125C65.2735 33.0734 65.4001 32.9117 65.4001 32.3C65.4001 31.4633 65.2173 31.3438 65.0626 31.0063C64.9079 30.6688 64.6759 30.2891 64.4439 29.8813C63.9728 29.0586 63.3681 28.0742 62.6438 26.9563C61.1954 24.7203 59.3392 22.0274 57.7501 19.8125C56.4493 17.9914 55.3665 15.9242 54.2063 14.0188C53.2712 12.4789 52.2868 11.0516 51.0001 9.96876C50.9931 9.87735 51.0071 9.77891 51.0001 9.68751C50.9649 9.04063 50.5712 8.45704 49.9876 8.16876L42.7876 4.56876C42.2603 4.3086 41.6696 4.35079 41.1563 4.62501L38.4001 3.27501V2.60001C38.4142 2.04454 38.1681 1.5172 37.7392 1.16563C37.3173 0.814071 36.7478 0.680477 36.2063 0.800007C35.3696 0.989852 34.779 1.7422 34.8001 2.60001V4.40001C34.7931 5.0961 35.1868 5.72891 35.8126 6.03126L40.1438 8.16876C39.9048 15.2844 38.1118 16.6063 36.2063 17.9C35.1657 18.6102 33.9985 19.3766 33.0001 20.8813C32.0017 19.3766 30.8345 18.6102 29.7938 17.9C27.8884 16.6063 26.0954 15.2844 25.8563 8.16876L30.1876 6.03126C30.8134 5.72891 31.2071 5.0961 31.2001 4.40001V2.60001C31.2212 2.0797 31.0103 1.58048 30.6376 1.22891C30.2579 0.870321 29.7446 0.694538 29.2313 0.743757ZM15.3376 15.2563C15.6048 16.8524 16.0337 18.3781 16.4626 19.8125L7.74385 32.1875C7.31494 32.7641 7.27275 33.5375 7.63135 34.1563L14.3251 45.8C14.4517 46.0672 14.6485 46.2992 14.8876 46.475C13.8188 49.2102 12.9259 52.1984 12.1876 55.4188C11.8993 54.0758 11.836 52.6344 11.9063 51.3125C12.047 48.7531 12.6376 46.7563 12.6376 46.7563C12.7782 46.257 12.6938 45.7297 12.4126 45.2938C12.4126 45.2938 10.3103 42.0875 8.19385 38.7688C7.13213 37.1094 6.04932 35.4289 5.26885 34.1C4.88213 33.4391 4.57275 32.8695 4.36885 32.4688C4.34072 32.4195 4.33369 32.3984 4.3126 32.3563C4.404 32.1805 4.48838 31.9625 4.6501 31.6813C5.05791 30.9641 5.69072 30.0078 6.39385 28.925C7.8001 26.7594 9.61416 24.1227 11.1751 21.95C12.6587 19.8758 13.8048 17.7102 14.8876 15.9313C15.0423 15.6711 15.1829 15.4953 15.3376 15.2563ZM50.6626 15.2563C50.8173 15.4953 50.9579 15.6711 51.1126 15.9313C52.1954 17.7102 53.3415 19.8758 54.8251 21.95C56.386 24.1227 58.2001 26.7594 59.6063 28.925C60.3095 30.0078 60.9423 30.9641 61.3501 31.6813C61.5118 31.9625 61.5962 32.1805 61.6876 32.3563C61.6665 32.3984 61.6595 32.4195 61.6314 32.4688C61.4274 32.8695 61.1181 33.4391 60.7313 34.1C59.9509 35.4289 58.8681 37.1094 57.8064 38.7688C55.6899 42.0875 53.5876 45.2938 53.5876 45.2938C53.3064 45.7297 53.222 46.257 53.3626 46.7563C53.3626 46.7563 53.9532 48.7531 54.0938 51.3125C54.1642 52.5781 54.122 53.9563 53.8689 55.25C53.1235 52.0367 52.1884 49.0906 51.1126 46.3625C51.3376 46.2219 51.5345 46.025 51.6751 45.8L58.3689 34.1563C58.7274 33.5375 58.6853 32.7641 58.2564 32.1875L49.5376 19.8125C49.9665 18.3781 50.3954 16.8524 50.6626 15.2563ZM17.8126 24.1438C18.0446 24.8609 18.2978 25.5922 18.4876 26.2813C19.2329 29.0164 19.8024 31.5969 20.1188 33.7063C21.8978 34.3742 27.4876 36.2938 33.0001 36.2938C38.5126 36.2938 44.1024 34.3742 45.8813 33.7063C46.1978 31.5969 46.7673 29.0164 47.5126 26.2813C47.7024 25.5922 47.9556 24.8609 48.1876 24.1438L54.6563 33.3125L49.4251 42.4813C48.5181 40.6602 47.4774 38.9516 46.3876 37.3625C43.8704 38.2555 38.4985 39.8938 33.0001 39.8938C27.5017 39.8938 22.1298 38.2555 19.6126 37.3625C18.5228 38.9586 17.5454 40.6883 16.6313 42.5375L11.3438 33.3125L17.8126 24.1438Z"
        fill="#ffffff" />
</svg>