<svg width="83" height="81" viewBox="0 0 83 81" fill="none" xmlns="http://www.w3.org/2000/svg">
    <path
        d="M31.1537 0.339998C30.6183 0.353905 30.0968 0.49992 29.5962 0.729373C27.6702 1.61937 26.7524 3.87219 27.5381 5.84687L31.0424 14.6356L25.4243 24.3144L16.0793 25.5937L9.01493 18.8075L11.2399 8.40562C11.3651 7.31398 11.0035 6.18758 10.2943 5.34625C9.58509 4.50492 8.55603 3.95562 7.45743 3.9H7.01243C4.87782 3.80266 3.06306 5.3532 2.84056 7.46L0.615558 19.7531C0.455635 21.2133 0.838058 22.7012 1.72806 23.8694L11.7406 35.6619L7.51306 43.8944C6.31017 46.5366 5.82345 49.4638 6.12243 52.3494L9.18181 76.3237C9.42517 78.6739 11.379 80.44 13.7431 80.44C15.0294 80.44 16.267 79.8837 17.1362 78.9381C18.0053 77.9925 18.4712 76.7131 18.3599 75.4337L16.5799 53.74L18.3599 51.96L24.5343 60.5262L22.0312 75.0444C21.7461 76.3655 22.0729 77.7213 22.9212 78.7712C23.7695 79.8281 25.0141 80.44 26.3699 80.44C28.4002 80.44 30.1455 79.0633 30.6531 77.1025L33.9906 61.6944C34.3869 60.1786 34.1713 58.5655 33.4343 57.1887L27.2599 45.6187L30.2637 32.4912L39.0524 18.14C39.8312 16.8328 39.9563 15.2127 39.3862 13.8012L34.9362 2.84312C34.519 1.82101 33.7402 1.02836 32.7112 0.618123C32.1967 0.416483 31.6891 0.326093 31.1537 0.339998ZM78.3237 0.339998C76.3351 0.25656 74.4508 1.5707 73.9293 3.56625L70.3137 13.0781L63.8612 22.5344L52.1799 25.26C50.539 25.6285 49.1067 26.4698 48.0081 27.7075L40.8324 36.2737C39.9981 37.2055 39.3792 38.3527 39.0524 39.5556L36.2712 48.7894C35.7149 50.8614 36.9804 53.003 39.0524 53.5731C41.0967 54.1433 43.2243 52.9821 43.8362 50.9587L46.6731 42.5594L52.1799 35.94C52.6597 39.0063 51.6515 44.7983 51.0118 46.62L44.0031 60.1369C43.6693 60.7766 43.4329 61.4788 43.2799 62.195L39.8312 75.1C39.5531 76.4072 39.8729 77.7839 40.7212 78.8269C41.5625 79.8698 42.828 80.44 44.1699 80.44H44.6706C46.7635 80.44 48.5921 78.9312 49.0093 76.88L52.3468 64.3644L59.2999 51.96L64.8068 59.97L66.4756 76.4906C66.7328 78.7295 68.6171 80.44 70.8699 80.44C72.1215 80.44 73.3731 79.9255 74.2074 78.9937C75.0488 78.062 75.4451 76.7896 75.3199 75.545L73.7068 58.3012C73.6095 57.3904 73.3731 56.5073 72.9837 55.6869L67.7549 44.7287C68.2764 43.1852 69.9799 37.9077 69.9799 30.6L77.8787 16.9719C77.9204 16.9093 77.9691 16.8189 77.9899 16.7494L82.2731 5.84687C82.5999 4.71351 82.4747 3.53148 81.8837 2.50937C81.2927 1.48726 80.3053 0.736326 79.1581 0.451248C78.873 0.381718 78.6088 0.353905 78.3237 0.339998ZM20.1399 7.46C16.2045 7.46 13.0199 10.6445 13.0199 14.58C13.0199 18.5155 16.2045 21.7 20.1399 21.7C24.0754 21.7 27.2599 18.5155 27.2599 14.58C27.2599 10.6445 24.0754 7.46 20.1399 7.46ZM55.7399 7.46C51.8045 7.46 48.6199 10.6445 48.6199 14.58C48.6199 18.5155 51.8045 21.7 55.7399 21.7C59.6754 21.7 62.8599 18.5155 62.8599 14.58C62.8599 10.6445 59.6754 7.46 55.7399 7.46Z"
        fill="black" />
</svg>