<svg width="72" height="84" viewBox="0 0 72 84" fill="none" xmlns="http://www.w3.org/2000/svg">
    <path
        d="M37.8 0.600006C33.8273 0.600006 30.6 3.82735 30.6 7.80001C30.6 11.7727 33.8273 15 37.8 15C41.7727 15 45 11.7727 45 7.80001C45 3.82735 41.7727 0.600006 37.8 0.600006ZM23.4 13.2C19.4273 13.2 16.2 16.4274 16.2 20.4C16.2 24.3727 19.4273 27.6 23.4 27.6C27.3727 27.6 30.6 24.3727 30.6 20.4C30.6 16.4274 27.3727 13.2 23.4 13.2ZM51.968 16.8422C51.4828 16.8492 51.0891 16.9055 50.85 16.9758L37.2234 19.7953C37.1461 19.8094 37.0687 19.8375 36.9984 19.8586C35.3812 20.4211 34.1086 21.7289 33.5602 23.5359L33.3352 24.6399L37.6594 22.7906C38.5594 22.3969 39.5156 22.2 40.5 22.2H49.95L58.5562 21.1242C57.6984 19.9078 56.932 18.825 56.7562 18.6C55.6102 17.1656 53.4023 16.8141 51.968 16.8422ZM65.0812 24.007C64.8492 23.993 64.6031 23.993 64.35 24.0281L50.175 25.8H40.5C40.0148 25.8 39.5297 25.8984 39.0867 26.0883L26.4867 31.4883C25.6359 31.8539 24.9609 32.5219 24.5953 33.3656L19.8844 44.2289L10.7437 49.7133C9.04219 50.7328 8.48672 52.9477 9.50625 54.6563C10.1883 55.7813 11.3766 56.4 12.6 56.4C13.2328 56.4 13.8727 56.2313 14.4562 55.8867L24.5812 49.8117C25.2211 49.425 25.7344 48.8484 26.0297 48.1594L29.4258 40.3195L32.0344 43.8281L33.9117 43.8C35.4937 43.7438 40.3102 42.893 42.1242 40.5516C42.6375 39.8906 42.525 39.3281 42.525 39.3281L41.4 33.0281L50.4 33C50.5477 33 50.7023 32.993 50.85 32.9719L65.25 31.1719C67.2188 30.9258 68.618 29.1258 68.3719 27.15C68.1539 25.4274 66.7547 24.1336 65.0812 24.007ZM66.9656 34.4555C66.5578 34.582 66.1289 34.6875 65.693 34.7438L57.6 35.7563V38.4C57.6 40.1367 58.8445 41.557 60.4758 41.8945C60.5461 41.9156 60.6234 41.9297 60.7008 41.9438C60.7219 41.9438 60.743 41.9508 60.757 41.9508C60.7641 41.9508 60.7641 41.9508 60.7781 41.9508C60.9117 41.9719 61.0383 42 61.2 42C62.4164 42 63.5836 41.3953 64.2375 40.4742C64.807 39.6938 64.9898 39.3492 65.2852 38.7586C65.7562 37.8094 66.3961 36.0867 66.9656 34.4555ZM54 36.2063L51.3141 36.5438C51.0117 36.5789 50.7023 36.6 50.407 36.6L45.6961 36.6141L46.3289 40.3195L46.9617 41.0719C47.0672 41.2055 53.8453 49.3195 61.1719 57.4195C61.1437 56.4352 60.968 55.4649 60.6094 54.5016L56.1445 43.5258C56.1445 43.5188 56.1445 43.5188 56.1375 43.5188C54.8227 42.2109 54 40.3969 54 38.4V36.2063ZM44.1914 43.3781C40.8445 47.1117 34.3266 47.3859 34.0383 47.4L32.4 47.4563C32.4 47.4563 30.6 54.375 20.5523 61.6875C11.7703 68.0789 1.73672 69 1.63828 69.007C1.63125 69.007 1.62422 69.0141 1.61719 69.0141L1.60312 69.007C1.48359 69.0211 1.37812 69.0774 1.26562 69.1125C1.17422 69.1406 1.06875 69.1547 0.984375 69.1969C0.871875 69.2531 0.794531 69.3375 0.703125 69.4149C0.61875 69.4711 0.534375 69.5203 0.464063 69.5906C0.379688 69.6891 0.323438 69.8086 0.260155 69.9211C0.217969 69.9914 0.154688 70.0617 0.126563 70.1461C0.0421884 70.35 0 70.568 0 70.8C0 73.9219 2.11641 80.1586 10.1531 81.4383C13.5633 81.9797 16.3125 80.9742 17.8242 80.2008C17.8242 80.2078 17.8312 80.2008 17.8383 80.2078C19.4484 81.4242 22.7039 83.4 27 83.4C30.9586 83.4 34.0453 81.7266 35.768 80.5031C37.2164 81.818 40.0008 83.4 45 83.4C50.2242 83.4 53.0297 81.6774 54.4219 80.3344C55.7508 80.9391 57.9445 81.6 61.2 81.6C69.3281 81.6 71.782 75.3 71.8875 75.0328C72.1477 74.3367 71.9508 73.5492 71.3953 73.057C61.8469 64.5703 44.1914 43.3781 44.1914 43.3781Z"
        fill="#ffffff" />
</svg>